<svg xmlns="http://www.w3.org/2000/svg"  viewBox="0 0 64 64" width="64px" height="64px"><radialGradient id="EbYfY8dFz67vGgREkuPi4a" cx="32" cy="-646.39" r="30.301" gradientTransform="matrix(1 0 0 -1 0 -613.89)" gradientUnits="userSpaceOnUse"><stop offset="0" stop-color="#f4e9c3"/><stop offset=".219" stop-color="#f8eecd"/><stop offset=".644" stop-color="#fdf4dc"/><stop offset="1" stop-color="#fff6e1"/></radialGradient><path fill="url(#EbYfY8dFz67vGgREkuPi4a)" d="M63.99,36.31C64.1,38.33,62.5,40,60.5,40h-9.48C51.009,40,51,40.009,51,40.02v5.96 c0,0.011,0.009,0.02,0.02,0.02h9.48c1.58,0,2.81,1.46,2.43,3.11C62.66,50.25,61.54,51,60.37,51H59.5c-0.825,0-1.5,0.675-1.5,1.5 l0,0c0,0.825,0.675,1.5,1.5,1.5l0,0c2,0,3.6,1.67,3.49,3.69C62.9,59.58,61.2,61,59.3,61H4c-2.48,0-4.43-2.26-3.92-4.82 C0.47,54.29,2.25,53,4.18,53H6c2.92,0,5.26-2.51,4.98-5.49C10.73,44.91,8.4,43,5.78,43H4c-2.48,0-4.43-2.26-3.92-4.82 C0.47,36.29,2.07,35,4,35h2c1.3,0,2.331-1.251,1.899-2.632C7.635,31.521,6.777,31,5.89,31L3.5,31c-2,0-3.6-1.67-3.49-3.69 C0.1,25.42,1.8,24,3.7,24h7.28c0.011,0,0.02-0.009,0.02-0.02v-4.96c0-0.011-0.009-0.02-0.02-0.02H3.5 c-1.577,0-2.805-1.445-2.432-3.09C1.329,14.757,2.448,14,3.63,14H4.5C5.33,14,6,13.33,6,12.5S5.33,11,4.5,11h-1 c-2,0-3.6-1.67-3.49-3.69C0.1,5.42,1.8,4,3.7,4H60c2.34,0,4.21,2.01,3.98,4.39c-0.19,2.05-2,3.56-4.04,3.61H57.5 c-2.485,0-4.5,2.015-4.5,4.5h1l-1,0c0,2.485,2.015,4.5,4.5,4.5H60c2.48,0,4.43,2.26,3.92,4.82C63.53,27.71,61.93,29,60,29h-5 c-1.1,0-2,0.9-2,2l0,0c0,1.1,0.9,2,2,2h5.3C62.2,33,63.9,34.42,63.99,36.31z"/><linearGradient id="EbYfY8dFz67vGgREkuPi4b" x1="37" x2="37" y1="152.862" y2="134.527" gradientTransform="matrix(1 0 0 -1 0 162)" gradientUnits="userSpaceOnUse"><stop offset=".052" stop-color="#0053bf"/><stop offset=".774" stop-color="#2185e6"/></linearGradient><path fill="url(#EbYfY8dFz67vGgREkuPi4b)" d="M55,15l-18,1l-18-1v-1c0-2.761,2.239-5,5-5h26c2.761,0,5,2.239,5,5V15z"/><linearGradient id="EbYfY8dFz67vGgREkuPi4c" x1="52.296" x2="52.296" y1="40.922" y2="26.503" gradientUnits="userSpaceOnUse"><stop offset="0" stop-color="#003d8c"/><stop offset="1" stop-color="#2185e6"/></linearGradient><path fill="url(#EbYfY8dFz67vGgREkuPi4c)" d="M56.068,31.437l-8.469-4.934v14.419h9.396v-7.874C56.994,32.384,56.641,31.771,56.068,31.437 z"/><linearGradient id="EbYfY8dFz67vGgREkuPi4d" x1="49" x2="49" y1="37" y2="48.167" gradientUnits="userSpaceOnUse"><stop offset="0" stop-color="#1b71e2"/><stop offset="1" stop-color="#1f8ce8"/></linearGradient><path fill="url(#EbYfY8dFz67vGgREkuPi4d)" d="M43,37h13v11.167H42L43,37z"/><linearGradient id="EbYfY8dFz67vGgREkuPi4e" x1="48.5" x2="48.5" y1="15" y2="26" gradientUnits="userSpaceOnUse"><stop offset="0" stop-color="#3cb5ea"/><stop offset="1" stop-color="#7ddefb"/></linearGradient><path fill="url(#EbYfY8dFz67vGgREkuPi4e)" d="M43,15h12v11H42L43,15z"/><linearGradient id="EbYfY8dFz67vGgREkuPi4f" x1="36.939" x2="36.939" y1="37" y2="48.167" gradientUnits="userSpaceOnUse"><stop offset=".052" stop-color="#0053bf"/><stop offset=".774" stop-color="#2185e6"/></linearGradient><path fill="url(#EbYfY8dFz67vGgREkuPi4f)" d="M30.878,37H43v11.167H30.878V37z"/><linearGradient id="EbYfY8dFz67vGgREkuPi4g" x1="48.5" x2="48.5" y1="26" y2="37" gradientUnits="userSpaceOnUse"><stop offset="0" stop-color="#2185e6"/><stop offset="1" stop-color="#2eb5f0"/></linearGradient><path fill="url(#EbYfY8dFz67vGgREkuPi4g)" d="M43,26h12v11H42L43,26z"/><linearGradient id="EbYfY8dFz67vGgREkuPi4h" x1="34" x2="35" y1="46" y2="46" gradientTransform="matrix(0 11 11 0 -469.5 -348)" gradientUnits="userSpaceOnUse"><stop offset="0" stop-color="#1b71e2"/><stop offset="1" stop-color="#1f8ce8"/></linearGradient><polyline fill="url(#EbYfY8dFz67vGgREkuPi4h)" points="43,26 30,26 30,37 43,37 43,26"/><linearGradient id="EbYfY8dFz67vGgREkuPi4i" x1="40.621" x2="50.441" y1="51.758" y2="35.187" gradientUnits="userSpaceOnUse"><stop offset=".155" stop-color="#2185e6"/><stop offset=".198" stop-color="#238be7"/><stop offset=".412" stop-color="#29a2ec"/><stop offset=".613" stop-color="#2db0ef"/><stop offset=".785" stop-color="#2eb5f0"/></linearGradient><path fill="url(#EbYfY8dFz67vGgREkuPi4i)" d="M57,33v16c0,3.314-2.686,6-6,6H39.4l-13.92-4.22L57,33z"/><linearGradient id="EbYfY8dFz67vGgREkuPi4j" x1="26.03" x2="35.048" y1="29.878" y2="49.218" gradientUnits="userSpaceOnUse"><stop offset="0" stop-color="#2185e6"/><stop offset="1" stop-color="#2eb5f0"/></linearGradient><path fill="url(#EbYfY8dFz67vGgREkuPi4j)" d="M54.71,53.71C53.69,54.52,52.4,55,51,55H24c-3.31,0-6-2.69-6-6V33L54.71,53.71z"/><linearGradient id="EbYfY8dFz67vGgREkuPi4k" x1="25.5" x2="25.5" y1="32.435" y2="73.169" gradientUnits="userSpaceOnUse"><stop offset="0" stop-color="#2185e6"/><stop offset="1" stop-color="#2eb5f0"/></linearGradient><path fill="url(#EbYfY8dFz67vGgREkuPi4k)" d="M33,53.5c0,0.83-0.67,1.5-1.5,1.5l-7.61-0.01C20.63,54.94,18,52.27,18,49v-2h9.5 c0.83,0,1.5,0.67,1.5,1.5c0,0.83-0.67,1.5-1.5,1.5H27c-0.55,0-1,0.45-1,1s0.45,1,1,1h4.5C32.33,52,33,52.67,33,53.5z"/><linearGradient id="EbYfY8dFz67vGgREkuPi4l" x1="55.5" x2="55.5" y1="2.652" y2="43.386" gradientTransform="rotate(180 53 22)" gradientUnits="userSpaceOnUse"><stop offset=".036" stop-color="#2185e6"/><stop offset=".039" stop-color="#2186e6"/><stop offset=".161" stop-color="#279bea"/><stop offset=".296" stop-color="#2baaee"/><stop offset=".456" stop-color="#2db2ef"/><stop offset=".699" stop-color="#2eb5f0"/></linearGradient><path fill="url(#EbYfY8dFz67vGgREkuPi4l)" d="M46,16.5c0-0.83,0.67-1.5,1.5-1.5H55v8h-3.5c-0.83,0-1.5-0.67-1.5-1.5 c0-0.83,0.67-1.5,1.5-1.5H52c0.55,0,1-0.45,1-1s-0.45-1-1-1h-4.5C46.67,18,46,17.33,46,16.5z"/><linearGradient id="EbYfY8dFz67vGgREkuPi4m" x1="36.5" x2="36.5" y1="15" y2="26" gradientUnits="userSpaceOnUse"><stop offset="0" stop-color="#2185e6"/><stop offset="1" stop-color="#2eb5f0"/></linearGradient><path fill="url(#EbYfY8dFz67vGgREkuPi4m)" d="M31,15h12v11H30L31,15z"/><linearGradient id="EbYfY8dFz67vGgREkuPi4n" x1="25" x2="25" y1="11.087" y2="22.087" gradientUnits="userSpaceOnUse"><stop offset="0" stop-color="#1b71e2"/><stop offset="1" stop-color="#1f8ce8"/></linearGradient><path fill="url(#EbYfY8dFz67vGgREkuPi4n)" d="M19,15h12v11H19V15z"/><linearGradient id="EbYfY8dFz67vGgREkuPi4o" x1="4.021" x2="32.888" y1="125.23" y2="135.737" gradientTransform="matrix(1 0 0 -1 0 162)" gradientUnits="userSpaceOnUse"><stop offset="0" stop-color="#155cde"/><stop offset=".486" stop-color="#2185e6"/><stop offset="1" stop-color="#2eb5f0"/></linearGradient><path fill="url(#EbYfY8dFz67vGgREkuPi4o)" d="M28.5,44h-20C7.119,44,6,42.881,6,41.5v-20C6,20.119,7.119,19,8.5,19h20 c1.381,0,2.5,1.119,2.5,2.5v20C31,42.881,29.881,44,28.5,44z"/><path fill="#fff" d="M18.5,24.5c-4.056,0-6.5,3.134-6.5,7s2.434,7,6.5,7c4.067,0,6.5-3.134,6.5-6.999 C25,27.634,22.556,24.5,18.5,24.5z M18.5,36.137c-2.301,0-3.677-2.075-3.677-4.636s1.382-4.636,3.677-4.636 s3.678,2.077,3.678,4.636S20.8,36.137,18.5,36.137z"/></svg>